<svg width="22" height="22" viewBox="0 0 22 22" fill="none" xmlns="http://www.w3.org/2000/svg">
<path d="M18.68 0.920044H3.32001C1.99521 0.920044 0.920013 1.99524 0.920013 3.32004V18.68C0.920013 20.0048 1.99521 21.08 3.32001 21.08H18.68C20.0048 21.08 21.08 20.0048 21.08 18.68V3.32004C21.08 1.99524 20.0048 0.920044 18.68 0.920044ZM16.76 8.12004H15.8C14.7728 8.12004 14.36 8.36004 14.36 9.08004V10.52H16.76L16.28 12.92H14.36V20.12H11.96V12.92H10.04V10.52H11.96V9.08004C11.96 7.16004 12.92 5.72004 14.84 5.72004C16.232 5.72004 16.76 6.20004 16.76 6.20004V8.12004Z" fill="#06335B"/>
</svg>
