<svg width="22" height="22" viewBox="0 0 22 22" fill="none" xmlns="http://www.w3.org/2000/svg">
<path d="M1.73888 1.68368C1.95915 0.875078 2.06929 0.470775 2.3978 0.235387C2.7263 0 3.18041 0 4.08863 0H17.2609C18.1691 0 18.6232 0 18.9517 0.235387C19.2802 0.470775 19.3904 0.875078 19.6107 1.68368L21.0683 7.03444C21.1856 7.46497 21.2442 7.68023 21.2313 7.85507C21.1977 8.30844 20.8668 8.6974 20.3957 8.83723C20.214 8.89116 19.9666 8.89116 19.4718 8.89116C18.8262 8.89116 18.5033 8.89116 18.2322 8.83319C17.4726 8.6708 16.8447 8.18264 16.5453 7.52172C16.4384 7.28581 16.3865 7.00018 16.2828 6.42894C16.2537 6.26911 16.2392 6.1892 16.2228 6.16817C16.1745 6.10644 16.0744 6.10644 16.0261 6.16817C16.0096 6.1892 15.9951 6.26911 15.9661 6.42894L15.8673 6.97268C15.8568 7.03032 15.8516 7.05915 15.8464 7.08439C15.6327 8.11375 14.6646 8.86634 13.5231 8.89057C13.4951 8.89116 13.4633 8.89116 13.3996 8.89116C13.3359 8.89116 13.3041 8.89116 13.2761 8.89057C12.1346 8.86634 11.1665 8.11375 10.9528 7.08439C10.9476 7.05915 10.9423 7.03032 10.9319 6.97268L10.8331 6.42894C10.8041 6.26911 10.7896 6.1892 10.7731 6.16817C10.7248 6.10644 10.6247 6.10644 10.5764 6.16817C10.56 6.1892 10.5454 6.26911 10.5164 6.42894L10.4177 6.97268C10.4072 7.03032 10.402 7.05915 10.3967 7.08439C10.183 8.11375 9.21497 8.86634 8.07346 8.89057C8.04546 8.89116 8.01362 8.89116 7.94994 8.89116C7.88627 8.89116 7.85443 8.89116 7.82643 8.89057C6.68491 8.86634 5.71687 8.11375 5.50317 7.08439C5.49793 7.05915 5.49269 7.03032 5.48222 6.97268L5.38347 6.42894C5.35445 6.26911 5.33994 6.1892 5.32348 6.16817C5.27516 6.10644 5.17508 6.10644 5.12676 6.16817C5.1103 6.1892 5.09579 6.26911 5.06676 6.42894C4.96302 7.00018 4.91115 7.28581 4.80427 7.52172C4.50484 8.18264 3.87693 8.6708 3.11733 8.83319C2.84619 8.89116 2.52337 8.89116 1.87771 8.89116C1.38295 8.89116 1.13557 8.89116 0.953879 8.83723C0.482748 8.6974 0.151831 8.30844 0.11828 7.85507C0.105341 7.68023 0.163981 7.46497 0.281261 7.03444L1.73888 1.68368Z" fill="black"/>
<path d="M2.2187 10.5585C2.19753 11.0263 2.19753 11.5754 2.19753 12.2253V18.8937C2.19753 19.9415 2.19753 20.4655 2.55224 20.791C2.90694 21.1165 3.47783 21.1165 4.6196 21.1165H8.2527V16.6709C8.2527 16.0571 8.7949 15.5595 9.46373 15.5595H11.8858C12.5546 15.5595 13.0968 16.0571 13.0968 16.6709V21.1165H16.7299C17.8717 21.1165 18.4426 21.1165 18.7973 20.791C19.152 20.4655 19.152 19.9415 19.152 18.8937V12.2253C19.152 11.5754 19.152 11.0263 19.1308 10.5585C18.6891 10.5575 18.2372 10.546 17.8201 10.4568C17.1911 10.3223 16.6137 10.0602 16.1244 9.69888C15.4171 10.2214 14.5262 10.5368 13.5651 10.5572C13.5153 10.5583 13.4629 10.5583 13.4127 10.5583H13.3865C13.3364 10.5583 13.2839 10.5583 13.2341 10.5572C12.273 10.5368 11.3821 10.2214 10.6748 9.69889C9.96741 10.2214 9.07657 10.5368 8.11546 10.5572C8.06566 10.5583 8.01322 10.5583 7.96309 10.5583H7.9369C7.88677 10.5583 7.83423 10.5583 7.78442 10.5572C6.82331 10.5368 5.93247 10.2214 5.22511 9.69888C4.73581 10.0602 4.15844 10.3223 3.52947 10.4568C3.11238 10.546 2.66047 10.5575 2.2187 10.5585Z" fill="black"/>
</svg>
