<svg width="10" height="12" viewBox="0 0 10 12" fill="none" xmlns="http://www.w3.org/2000/svg">
<path d="M9.16249 4.18995C9.16249 6.77062 6.80873 8.43373 5.69505 9.0762C5.33823 9.28204 4.90957 9.28204 4.55276 9.0762C3.43908 8.43373 1.08531 6.77062 1.08531 4.18995C1.08531 1.9621 2.89345 0.156067 5.1239 0.156067C7.35435 0.156067 9.16249 1.9621 9.16249 4.18995Z" fill="#57CC99"/>
<ellipse cx="5.12386" cy="4.18993" rx="1.73082" ry="1.72881" fill="white"/>
<path d="M8.48507 8.07785C8.83312 8.42193 9.01635 8.81224 9.01635 9.20954C9.01635 9.60685 8.83312 9.99715 8.48507 10.3412C8.13702 10.6853 7.63642 10.971 7.03359 11.1697C6.43075 11.3683 5.74692 11.4729 5.05082 11.4729C4.35473 11.4729 3.6709 11.3683 3.06806 11.1697C2.46522 10.971 1.96462 10.6853 1.61658 10.3412C1.26853 9.99715 1.0853 9.60685 1.0853 9.20954C1.0853 8.81224 1.26853 8.42193 1.61658 8.07785" stroke="#57CC99" stroke-width="0.868592" stroke-linecap="round"/>
</svg>
