<svg width="7" height="10" viewBox="0 0 7 10" fill="none" xmlns="http://www.w3.org/2000/svg">
<path d="M1.27642 3.28916C1.26074 3.4188 1.24782 3.54884 1.22888 3.67801C1.18049 4.00776 1.17465 4.33311 1.31416 4.64627C1.36492 4.76019 1.42899 4.86484 1.52305 4.94857C1.65167 5.06309 1.77878 5.05932 1.90159 4.93766C2.08052 4.7604 2.10939 4.54164 2.07776 4.30548C2.04513 4.06163 1.98656 3.82152 1.98812 3.57275C1.99188 2.96902 2.24702 2.48878 2.70342 2.10625C2.78822 2.03517 2.88355 1.9764 2.97384 1.91205C3.02758 1.87376 3.0823 1.83669 3.13848 1.80207C3.46126 1.60327 3.54896 1.30993 3.48435 0.958155C3.45813 0.815335 3.42197 0.674316 3.38969 0.532633C3.37865 0.484118 3.39048 0.461258 3.44129 0.48763C3.71934 0.631988 4.00825 0.75934 4.21973 1.00452C4.75382 1.6237 4.27157 2.46267 4.33572 3.17327C4.34386 3.27243 4.36462 3.37014 4.39749 3.46405C4.5067 3.76791 4.87257 4.13059 5.21417 3.92788C5.43029 3.7996 5.54478 3.51875 5.60229 3.28596C5.66221 3.03403 5.6673 2.77216 5.6172 2.51809C5.6123 2.49271 5.60708 2.4684 5.60156 2.44516C5.59893 2.43394 5.60006 2.42217 5.60479 2.41167C5.60952 2.40117 5.61757 2.39251 5.62771 2.38704C5.63785 2.38157 5.6495 2.37959 5.66088 2.38141C5.67225 2.38323 5.68271 2.38874 5.69064 2.3971C5.99022 2.71245 6.45122 3.27177 6.70699 3.98628C6.80269 4.26325 6.87446 4.54791 6.92154 4.83714C6.96715 5.1258 6.9858 5.41808 6.97724 5.7102C6.96906 5.99861 6.9318 6.28547 6.86603 6.5664C6.80137 6.84317 6.70537 7.11166 6.5799 7.36669C6.45451 7.621 6.29685 7.85808 6.11081 8.07205C5.91832 8.29215 5.69617 8.48443 5.45074 8.64336C5.39204 8.68142 5.33215 8.71753 5.27106 8.75172C3.70739 9.62761 1.61826 9.05574 0.747536 7.48165C0.108135 6.32575 0.0544988 4.77918 0.908007 3.71206C1.02279 3.56852 1.13368 3.42189 1.24639 3.27671L1.27642 3.28916Z" fill="#FFE966"/>
<path d="M3.48438 0.958162C3.49264 1.00265 3.4984 1.04755 3.50163 1.09268C3.92352 1.70178 3.48812 2.49585 3.54929 3.17328C3.55743 3.27244 3.57819 3.37015 3.61105 3.46405C3.72027 3.76792 4.08614 4.1306 4.42774 3.92789C4.49206 3.88853 4.54862 3.83772 4.59462 3.77797C4.50853 3.68761 4.44148 3.58085 4.39749 3.46405C4.36463 3.37015 4.34388 3.27243 4.33574 3.17328C4.27158 2.46268 4.75384 1.62371 4.21975 1.00453C4.00828 0.759348 3.71936 0.631995 3.44129 0.487638C3.3905 0.461248 3.37865 0.484125 3.38971 0.53264C3.42199 0.674324 3.45815 0.815343 3.48438 0.958162ZM6.92155 4.83714C6.87448 4.54792 6.8027 4.26326 6.70701 3.98629C6.45124 3.27178 5.99024 2.71245 5.69066 2.3971C5.68273 2.38874 5.67227 2.38322 5.66089 2.3814C5.64951 2.37958 5.63785 2.38155 5.62771 2.38702C5.61756 2.39249 5.60951 2.40115 5.60478 2.41166C5.60005 2.42217 5.59892 2.43395 5.60156 2.44517C5.60704 2.46837 5.61226 2.49268 5.61722 2.5181C5.66732 2.77217 5.66223 3.03403 5.60231 3.28597C5.60074 3.29235 5.59896 3.29888 5.59729 3.30531C5.7265 3.52149 5.83475 3.74952 5.92056 3.98629C6.01625 4.26327 6.08803 4.54793 6.1351 4.83716C6.18072 5.12582 6.19936 5.4181 6.1908 5.71021C6.18263 5.99862 6.14537 6.28548 6.0796 6.56641C6.01494 6.84318 5.91894 7.11167 5.79347 7.3667C5.66808 7.62101 5.51042 7.85809 5.32438 8.07206C5.13189 8.29216 4.90974 8.48444 4.6643 8.64337C4.6056 8.68143 4.54571 8.71754 4.48463 8.75173C4.11293 8.95913 3.70384 9.0909 3.28097 9.13943C3.95472 9.21746 4.65382 9.09749 5.27108 8.75173C5.33213 8.71759 5.39202 8.68147 5.45075 8.64337C5.69619 8.48444 5.91834 8.29216 6.11083 8.07206C6.29686 7.85808 6.45452 7.62101 6.5799 7.3667C6.70538 7.11167 6.80138 6.84318 6.86605 6.56641C6.93182 6.28548 6.96908 5.99862 6.97725 5.71021C6.98582 5.41809 6.96717 5.12581 6.92155 4.83714ZM0.527715 4.6463C0.578485 4.76019 0.642554 4.86485 0.736614 4.94858C0.865242 5.0631 0.99235 5.05933 1.11514 4.93767C1.21012 4.84522 1.27227 4.72426 1.29211 4.59321C1.18991 4.33286 1.18328 4.06445 1.21402 3.79239C1.20572 3.71948 1.2016 3.64615 1.20169 3.57276C1.20214 3.48513 1.2083 3.39762 1.22011 3.31078C1.11642 3.44481 1.01386 3.57973 0.908025 3.71205C0.721864 3.94552 0.573812 4.20698 0.46936 4.48672C0.485258 4.54114 0.504758 4.59445 0.527732 4.64628L0.527715 4.6463Z" fill="#FFE236"/>
<path d="M1.92619 6.15951C1.97065 6.29382 2.0141 6.4285 2.05982 6.56238C2.14152 6.80164 2.2723 7.00746 2.48167 7.15615C2.63001 7.2615 2.79321 7.32136 2.97951 7.31503C3.28404 7.30471 3.47532 7.07443 3.42918 6.77446C3.39164 6.53033 3.2914 6.30871 3.1932 6.0859C3.06186 5.78794 2.92392 5.4932 2.839 5.17659C2.67664 4.57113 2.83533 4.0602 3.28266 3.63085C3.36943 3.54755 3.4615 3.46971 3.55236 3.39075C3.57267 3.3731 3.59116 3.33808 3.62164 3.35066C3.65318 3.36368 3.63929 3.40113 3.63901 3.42756C3.63707 3.62683 3.63917 3.82596 3.66802 4.02351C3.73136 4.45732 3.94211 4.82027 4.21759 5.15198C4.46261 5.44699 4.74263 5.7101 4.99356 5.99978C5.23351 6.27678 5.4353 6.57563 5.5741 6.91784C5.76494 7.3883 5.70307 7.82887 5.4368 8.24726C5.14826 8.70064 4.72774 8.97207 4.20807 9.09121C3.57188 9.23708 2.961 9.16524 2.40426 8.81701C1.82762 8.45635 1.51911 7.93336 1.53557 7.24228C1.54106 7.01251 1.6003 6.79215 1.69461 6.5825C1.75904 6.43923 1.82923 6.2985 1.89685 6.15666L1.92619 6.15951Z" fill="#FFC166"/>
<path d="M1.69532 7.15618C1.84366 7.26153 2.00686 7.32139 2.19316 7.31506C2.32901 7.31045 2.4422 7.26199 2.52195 7.1832C2.50835 7.17451 2.49495 7.1655 2.48177 7.15618C2.2724 7.00749 2.14164 6.80169 2.05992 6.56241C2.0142 6.42854 1.97075 6.29385 1.92629 6.15954L1.89693 6.15667C1.82933 6.29853 1.75915 6.43926 1.69469 6.58253C1.62841 6.72712 1.58142 6.8798 1.55493 7.03664C1.59812 7.08054 1.6451 7.12054 1.69532 7.15618ZM5.5742 6.91787C5.4354 6.57568 5.23361 6.27681 4.99364 5.99979C4.74273 5.71013 4.46272 5.44702 4.21769 5.15199C3.94221 4.82029 3.73146 4.45735 3.66811 4.02353C3.63927 3.82599 3.63717 3.62684 3.63911 3.42759C3.63937 3.40116 3.65329 3.36371 3.62174 3.35069C3.59128 3.33811 3.57277 3.37315 3.55246 3.39078C3.46158 3.46972 3.36953 3.54758 3.28276 3.63088C3.11584 3.79109 2.98915 3.96267 2.90431 4.14626C2.98645 4.5265 3.18218 4.85213 3.43124 5.15199C3.67627 5.44702 3.95628 5.71013 4.20721 5.99979C4.44716 6.27679 4.64895 6.57566 4.78775 6.91787C4.97859 7.38833 4.91673 7.8289 4.65045 8.2473C4.36191 8.70067 3.94139 8.9721 3.42172 9.09125C3.3537 9.10684 3.28599 9.11987 3.21859 9.13033C3.53839 9.18481 3.8697 9.16885 4.20817 9.09125C4.72784 8.9721 5.14838 8.70067 5.4369 8.2473C5.70318 7.8289 5.76503 7.38833 5.5742 6.91785V6.91787Z" fill="#FFB74E"/>
</svg>
