<svg width="20" height="24" viewBox="0 0 20 24" fill="none" xmlns="http://www.w3.org/2000/svg">
<path fill-rule="evenodd" clip-rule="evenodd" d="M19.0123 3.51511L11.6138 0.344314C10.5426 -0.114771 9.33003 -0.114771 8.25883 0.344314L0.860315 3.51511C0.338398 3.73878 0 4.25198 0 4.81981V12.2761C0 15.0267 1.32833 17.6079 3.56652 19.2066L8.2862 22.5778C9.2733 23.2828 10.5993 23.2828 11.5864 22.5778L16.3061 19.2066C18.5443 17.6079 19.8726 15.0267 19.8726 12.2761V4.81981C19.8726 4.25198 19.5342 3.73879 19.0123 3.51511ZM15.3883 9.09737C15.9157 8.43812 15.8089 7.47614 15.1496 6.94874C14.4904 6.42134 13.5284 6.52822 13.001 7.18748L8.39002 12.9512L6.75876 11.3199C6.16178 10.7229 5.19388 10.7229 4.5969 11.3199C3.99992 11.9169 3.99992 12.8848 4.5969 13.4818L6.83201 15.7169C7.79838 16.6832 9.39019 16.5951 10.2439 15.5279L15.3883 9.09737Z" fill="#333333"/>
</svg>
