<svg width="69" height="13" viewBox="0 0 69 13" fill="none" xmlns="http://www.w3.org/2000/svg">
<path d="M58.8894 9.9038L59.5234 9.46082C59.1934 9.05258 58.9154 8.54011 58.6983 7.9321C58.4811 7.3154 58.3769 6.70738 58.3769 6.09068C58.3769 5.47398 58.4811 4.86597 58.6983 4.25795C58.9154 3.64125 59.1934 3.12878 59.5234 2.72054L58.8894 2.27756C58.0208 3.31119 57.5257 4.70093 57.5257 6.09068C57.5257 7.48043 58.0208 8.87018 58.8894 9.9038ZM64.3541 7.04613C64.3541 5.97777 63.6158 5.36975 62.339 5.30895L64.1283 3.41542V2.72054H60.2891V3.47622H63.1294L61.3488 5.36106V5.93434H61.6875C62.973 5.93434 63.5029 6.29046 63.5029 7.02008C63.5029 7.72364 63.0078 8.15793 62.1305 8.15793C61.4791 8.15793 60.9318 7.92341 60.4715 7.46306L59.9677 8.01896C60.5149 8.61829 61.2619 8.92229 62.1392 8.92229C63.4942 8.92229 64.3541 8.1753 64.3541 7.04613ZM65.6756 2.27756L65.0416 2.72054C65.3716 3.12878 65.6409 3.64125 65.858 4.25795C66.0752 4.86597 66.1881 5.47398 66.1881 6.09068C66.1881 6.70738 66.0752 7.3154 65.858 7.9321C65.6409 8.54011 65.3716 9.05258 65.0416 9.46082L65.6756 9.9038C66.5442 8.87018 67.0393 7.48043 67.0393 6.09068C67.0393 4.70093 66.5442 3.31119 65.6756 2.27756Z" fill="black"/>
<path d="M26.2691 3.91249C26.676 2.9961 26.8794 2.5379 27.2293 2.5379C27.5791 2.5379 27.7826 2.9961 28.1894 3.91249L28.2084 3.95516C28.4382 4.47288 28.5532 4.73174 28.7874 4.88908C29.0217 5.04641 29.3292 5.07129 29.9441 5.12105L30.0553 5.13005C31.0618 5.21148 31.565 5.2522 31.6727 5.54145C31.7804 5.83071 31.4067 6.13789 30.6592 6.75226L30.4098 6.9573C30.0314 7.2683 29.8422 7.4238 29.754 7.62761C29.7376 7.66563 29.7239 7.70458 29.7131 7.74421C29.6551 7.95668 29.7105 8.18226 29.8213 8.63344L29.8558 8.77387C30.0594 9.60303 30.1612 10.0176 29.9835 10.1964C29.917 10.2633 29.8307 10.3114 29.7348 10.335C29.4781 10.3983 29.1137 10.13 28.3849 9.59351C27.9064 9.24122 27.6671 9.06507 27.3924 9.02544C27.2843 9.00986 27.1742 9.00986 27.0662 9.02544C26.7914 9.06507 26.5522 9.24122 26.0736 9.59351C25.3448 10.13 24.9804 10.3983 24.7238 10.335C24.6278 10.3114 24.5415 10.2633 24.4751 10.1964C24.2973 10.0176 24.3991 9.60303 24.6028 8.77387L24.6372 8.63344C24.748 8.18226 24.8035 7.95668 24.7455 7.74421C24.7347 7.70458 24.721 7.66563 24.7046 7.62761C24.6164 7.4238 24.4272 7.2683 24.0488 6.9573L23.7993 6.75226C23.0519 6.13789 22.6781 5.83071 22.7858 5.54145C22.8935 5.2522 23.3968 5.21148 24.4032 5.13005L24.5144 5.12105C25.1294 5.07129 25.4369 5.04641 25.6711 4.88908C25.9054 4.73174 26.0203 4.47288 26.2502 3.95516L26.2691 3.91249Z" fill="#FBBC05"/>
<path d="M37.5756 3.91249C37.9824 2.9961 38.1859 2.5379 38.5357 2.5379C38.8855 2.5379 39.089 2.9961 39.4959 3.91249L39.5148 3.95516C39.7447 4.47288 39.8596 4.73174 40.0938 4.88908C40.3281 5.04641 40.6356 5.07129 41.2506 5.12105L41.3617 5.13005C42.3682 5.21148 42.8715 5.2522 42.9792 5.54145C43.0868 5.83071 42.7131 6.13789 41.9656 6.75226L41.7162 6.9573C41.3378 7.2683 41.1486 7.4238 41.0604 7.62761C41.044 7.66563 41.0303 7.70458 41.0195 7.74421C40.9615 7.95668 41.0169 8.18226 41.1277 8.63344L41.1622 8.77387C41.3659 9.60303 41.4677 10.0176 41.2899 10.1964C41.2235 10.2633 41.1371 10.3114 41.0412 10.335C40.7846 10.3983 40.4202 10.13 39.6914 9.59351C39.2128 9.24122 38.9735 9.06507 38.6988 9.02544C38.5908 9.00986 38.4806 9.00986 38.3726 9.02544C38.0979 9.06507 37.8586 9.24122 37.38 9.59351C36.6512 10.13 36.2868 10.3983 36.0302 10.335C35.9343 10.3114 35.8479 10.2633 35.7815 10.1964C35.6037 10.0176 35.7056 9.60303 35.9092 8.77387L35.9437 8.63344C36.0545 8.18226 36.1099 7.95668 36.0519 7.74421C36.0411 7.70458 36.0274 7.66563 36.011 7.62761C35.9228 7.4238 35.7336 7.2683 35.3552 6.9573L35.1058 6.75226C34.3583 6.13789 33.9846 5.83071 34.0923 5.54145C34.1999 5.2522 34.7032 5.21148 35.7097 5.13005L35.8209 5.12105C36.4358 5.07129 36.7433 5.04641 36.9776 4.88908C37.2118 4.73174 37.3267 4.47288 37.5566 3.95516L37.5756 3.91249Z" fill="#FBBC05" fill-opacity="0.5"/>
<path d="M48.882 3.91249C49.2889 2.9961 49.4923 2.5379 49.8421 2.5379C50.192 2.5379 50.3954 2.9961 50.8023 3.91249L50.8212 3.95516C51.0511 4.47288 51.166 4.73174 51.4003 4.88908C51.6345 5.04641 51.942 5.07129 52.557 5.12105L52.6682 5.13005C53.6747 5.21148 54.1779 5.2522 54.2856 5.54145C54.3933 5.83071 54.0195 6.13789 53.2721 6.75226L53.0226 6.9573C52.6442 7.2683 52.455 7.4238 52.3669 7.62761C52.3504 7.66563 52.3367 7.70458 52.3259 7.74421C52.268 7.95668 52.3234 8.18226 52.4342 8.63344L52.4687 8.77387C52.6723 9.60303 52.7741 10.0176 52.5963 10.1964C52.5299 10.2633 52.4436 10.3114 52.3477 10.335C52.091 10.3983 51.7266 10.13 50.9978 9.59351C50.5192 9.24122 50.28 9.06507 50.0052 9.02544C49.8972 9.00986 49.7871 9.00986 49.679 9.02544C49.4043 9.06507 49.165 9.24122 48.6865 9.59351C47.9577 10.13 47.5933 10.3983 47.3366 10.335C47.2407 10.3114 47.1544 10.2633 47.0879 10.1964C46.9102 10.0176 47.012 9.60303 47.2156 8.77387L47.2501 8.63344C47.3609 8.18226 47.4163 7.95668 47.3583 7.74421C47.3475 7.70458 47.3339 7.66563 47.3174 7.62761C47.2292 7.4238 47.04 7.2683 46.6617 6.9573L46.4122 6.75226C45.6647 6.13789 45.291 5.83071 45.3987 5.54145C45.5064 5.2522 46.0096 5.21148 47.0161 5.13005L47.1273 5.12105C47.7423 5.07129 48.0497 5.04641 48.284 4.88908C48.5182 4.73174 48.6332 4.47288 48.863 3.95516L48.882 3.91249Z" fill="#FBBC05" fill-opacity="0.5"/>
<path d="M14.9629 3.91249C15.3697 2.9961 15.5732 2.5379 15.923 2.5379C16.2729 2.5379 16.4763 2.9961 16.8832 3.91249L16.9021 3.95516C17.132 4.47288 17.2469 4.73174 17.4812 4.88908C17.7154 5.04641 18.0229 5.07129 18.6379 5.12105L18.7491 5.13005C19.7555 5.21148 20.2588 5.2522 20.3665 5.54145C20.4742 5.83071 20.1004 6.13789 19.353 6.75226L19.1035 6.9573C18.7251 7.2683 18.5359 7.4238 18.4477 7.62761C18.4313 7.66563 18.4176 7.70458 18.4068 7.74421C18.3488 7.95668 18.4043 8.18226 18.5151 8.63344L18.5495 8.77387C18.7532 9.60303 18.855 10.0176 18.6772 10.1964C18.6108 10.2633 18.5245 10.3114 18.4285 10.335C18.1719 10.3983 17.8075 10.13 17.0787 9.59351C16.6001 9.24122 16.3609 9.06507 16.0861 9.02544C15.9781 9.00986 15.868 9.00986 15.7599 9.02544C15.4852 9.06507 15.2459 9.24122 14.7674 9.59351C14.0386 10.13 13.6742 10.3983 13.4175 10.335C13.3216 10.3114 13.2353 10.2633 13.1688 10.1964C12.9911 10.0176 13.0929 9.60303 13.2965 8.77387L13.331 8.63344C13.4418 8.18226 13.4972 7.95668 13.4392 7.74421C13.4284 7.70458 13.4147 7.66563 13.3983 7.62761C13.3101 7.4238 13.1209 7.2683 12.7425 6.9573L12.4931 6.75226C11.7456 6.13789 11.3719 5.83071 11.4796 5.54145C11.5873 5.2522 12.0905 5.21148 13.097 5.13005L13.2082 5.12105C13.8231 5.07129 14.1306 5.04641 14.3649 4.88908C14.5991 4.73174 14.7141 4.47288 14.9439 3.95516L14.9629 3.91249Z" fill="#FBBC05"/>
<path d="M3.65642 3.91249C4.0633 2.9961 4.26674 2.5379 4.61658 2.5379C4.96641 2.5379 5.16985 2.9961 5.57673 3.91249L5.59568 3.95516C5.82555 4.47288 5.94048 4.73174 6.17472 4.88908C6.40896 5.04641 6.71645 5.07129 7.33143 5.12105L7.44261 5.13005C8.4491 5.21148 8.95235 5.2522 9.06003 5.54145C9.16771 5.83071 8.79398 6.13789 8.04652 6.75226L7.79705 6.9573C7.41867 7.2683 7.22948 7.4238 7.1413 7.62761C7.12486 7.66563 7.11118 7.70458 7.10037 7.74421C7.04241 7.95668 7.09781 8.18226 7.20861 8.63344L7.2431 8.77387C7.44673 9.60303 7.54855 10.0176 7.37077 10.1964C7.30435 10.2633 7.21801 10.3114 7.1221 10.335C6.86544 10.3983 6.50104 10.13 5.77224 9.59351C5.29369 9.24122 5.05441 9.06507 4.77969 9.02544C4.67163 9.00986 4.56152 9.00986 4.45346 9.02544C4.17874 9.06507 3.93947 9.24122 3.46091 9.59351C2.73212 10.13 2.36772 10.3983 2.11105 10.335C2.01515 10.3114 1.92881 10.2633 1.86238 10.1964C1.68461 10.0176 1.78643 9.60303 1.99006 8.77387L2.02455 8.63344C2.13535 8.18226 2.19075 7.95668 2.13279 7.74421C2.12198 7.70458 2.1083 7.66563 2.09185 7.62761C2.00367 7.4238 1.81448 7.2683 1.4361 6.9573L1.18664 6.75226C0.439175 6.13789 0.065443 5.83071 0.173126 5.54145C0.280808 5.2522 0.784054 5.21148 1.79055 5.13005L1.90172 5.12105C2.5167 5.07129 2.82419 5.04641 3.05843 4.88908C3.29268 4.73174 3.40761 4.47288 3.63748 3.95516L3.65642 3.91249Z" fill="#FBBC05"/>
</svg>
