<svg width="22" height="22" viewBox="0 0 22 22" fill="none" xmlns="http://www.w3.org/2000/svg">
<path fill-rule="evenodd" clip-rule="evenodd" d="M10.5583 0C4.72709 0 0 4.72709 0 10.5583C0 16.3894 4.72709 21.1165 10.5583 21.1165H15.8374C17.4772 21.1165 18.2971 21.1165 18.9439 20.8486C19.8063 20.4914 20.4914 19.8063 20.8486 18.9439C21.1165 18.2971 21.1165 17.4772 21.1165 15.8374V10.5583C21.1165 4.72709 16.3894 0 10.5583 0ZM5.8657 9.38511C5.8657 8.73721 6.39093 8.21197 7.03883 8.21197H14.0777C14.7256 8.21197 15.2508 8.73721 15.2508 9.38511C15.2508 10.033 14.7256 10.5583 14.0777 10.5583H7.03883C6.39093 10.5583 5.8657 10.033 5.8657 9.38511ZM9.38511 14.0777C9.38511 13.4298 9.91035 12.9045 10.5583 12.9045H14.0777C14.7256 12.9045 15.2508 13.4298 15.2508 14.0777C15.2508 14.7256 14.7256 15.2508 14.0777 15.2508H10.5583C9.91035 15.2508 9.38511 14.7256 9.38511 14.0777Z" fill="#C4C4C4"/>
</svg>
