<svg width="12" height="12" viewBox="0 0 12 12" fill="none" xmlns="http://www.w3.org/2000/svg">
<path d="M5.46858 0.391774C5.71235 -0.0920983 6.40314 -0.0920983 6.64691 0.391774L7.30155 1.69114C7.44854 1.98299 7.7871 2.12322 8.09744 2.02081L9.47909 1.56489C9.9936 1.39512 10.4821 1.8836 10.3123 2.39812L9.85638 3.77978C9.75399 4.09012 9.89419 4.42866 10.186 4.57569L11.4854 5.2303C11.9693 5.47407 11.9693 6.16486 11.4854 6.40863L10.186 7.06327C9.89419 7.21025 9.75399 7.54882 9.85638 7.85916L10.3123 9.24081C10.4821 9.75532 9.9936 10.2438 9.47909 10.074L8.09744 9.6181C7.7871 9.51571 7.44854 9.6559 7.30155 9.94776L6.64691 11.2472C6.40314 11.7311 5.71235 11.7311 5.46858 11.2472L4.81397 9.94776C4.66694 9.6559 4.3284 9.51571 4.01806 9.6181L2.6364 10.074C2.12188 10.2438 1.6334 9.75532 1.80318 9.24081L2.2591 7.85916C2.3615 7.54882 2.22127 7.21025 1.92942 7.06327L0.630055 6.40863C0.146183 6.16486 0.146183 5.47407 0.630055 5.2303L1.92942 4.57569C2.22127 4.42866 2.3615 4.09012 2.2591 3.77978L1.80318 2.39812C1.6334 1.8836 2.12188 1.39512 2.6364 1.56489L4.01806 2.02081C4.3284 2.12322 4.66694 1.98299 4.81397 1.69114L5.46858 0.391774Z" fill="#57CC99"/>
<path d="M4.22546 5.96641L5.5449 7.28585L8.18379 4.64697" stroke="white" stroke-width="0.989581" stroke-linecap="round" stroke-linejoin="round"/>
</svg>
