<svg width="124" height="31" viewBox="0 0 124 31" fill="none" xmlns="http://www.w3.org/2000/svg">
<path d="M68.835 0.00169255C68.3245 -0.0174017 67.8204 0.125421 67.3871 0.411897C66.9539 0.698373 66.6114 1.1154 66.4035 1.60949C66.1956 2.10357 66.1318 2.6522 66.2203 3.18494C66.3089 3.71768 66.5456 4.21024 66.9003 4.59947C67.255 4.98869 67.7114 5.25683 68.2109 5.36944C68.7105 5.48206 69.2304 5.434 69.704 5.23149C70.1776 5.02898 70.5833 4.68126 70.8689 4.23288C71.1546 3.7845 71.3073 3.25594 71.3074 2.71502C71.3274 2.3612 71.2779 2.00684 71.1619 1.67437C71.0459 1.34189 70.866 1.03854 70.6336 0.783503C70.4012 0.528463 70.1213 0.327269 69.8117 0.19269C69.5021 0.0581115 69.1695 -0.00689619 68.835 0.00169255Z" fill="#57CC99"/>
<path d="M92.8142 7.54204V24.5131H88.229V11.6735H80.8148V18.6705C80.8148 20.0852 81.3809 20.6579 82.3633 20.6274C83.1118 20.5789 83.8423 20.3638 84.507 19.9962L85.4649 23.5606C84.1911 24.3219 82.7541 24.7236 81.2916 24.7273C78.4306 24.7273 76.2572 22.9925 76.2572 19.4912V11.642H71.1291V24.5053H66.5525V7.53303H71.1398V8.28945H76.2625V3.62927H80.8148V8.29846H88.2311V7.54204H92.8142Z" fill="#57CC99"/>
<path d="M90.5231 0.00169255C90.0126 -0.0174017 89.5085 0.125421 89.0753 0.411897C88.6421 0.698373 88.2995 1.1154 88.0916 1.60949C87.8837 2.10357 87.8199 2.6522 87.9084 3.18494C87.997 3.71768 88.2338 4.21024 88.5885 4.59947C88.9431 4.98869 89.3995 5.25683 89.899 5.36944C90.3986 5.48206 90.9185 5.434 91.3921 5.23149C91.8657 5.02898 92.2713 4.68126 92.557 4.23288C92.8427 3.7845 92.9954 3.25594 92.9955 2.71502C93.0157 2.36116 92.9663 2.00671 92.8504 1.67416C92.7344 1.34161 92.5545 1.03824 92.3221 0.783159C92.0896 0.528082 91.8097 0.326866 91.5 0.192346C91.1904 0.0578268 90.8577 -0.0070672 90.5231 0.00169255Z" fill="#57CC99"/>
<path d="M15.9366 19.9081V24.5074H11.3493V1.10526H15.9366V13.9776L21.8033 7.57241H27.0165L21.1509 14.1027L27.2836 24.5052H21.864L17.9919 17.6107L15.9366 19.9081Z" fill="#ebebeb"/>
<path d="M38.2153 22.5246C37.5919 23.2758 36.814 23.8656 35.9416 24.2484C35.0692 24.6313 34.1255 24.797 33.1831 24.7329C29.758 24.7329 27.6751 22.5247 27.6751 19.4348C27.6751 16.2525 29.8453 14.3553 33.7791 14.3238H38.1877V14.007C38.1877 12.2034 37.0563 11.1786 34.8488 11.1786C33.1691 11.2465 31.5316 11.7555 30.0837 12.6599L28.6628 9.30622C30.8792 8.02328 33.365 7.3526 35.8908 7.35606C40.1812 7.35606 42.6526 9.62641 42.6824 13.4434L42.7122 24.5154H38.2132L38.2153 22.5246ZM38.1855 18.7077V17.1937H34.5817C32.8244 17.1937 31.9612 17.7574 31.9612 19.118C31.9612 20.4121 32.9191 21.2598 34.4646 21.2598C36.3985 21.2621 37.913 20.1585 38.1845 18.7077H38.1855Z" fill="#ebebeb"/>
<path d="M63.5077 16.1217C63.5077 21.2621 60.5584 24.7014 56.0572 24.7014C55.0585 24.7438 54.0655 24.5239 53.1665 24.0613C52.2675 23.5987 51.4905 22.9078 50.9047 22.0501V30.6297H46.3216V7.54318H50.9089V10.0345C51.4787 9.18205 52.2399 8.49323 53.1238 8.03017C54.0077 7.5671 54.9866 7.34433 55.9721 7.38197C60.47 7.3831 63.5077 10.8923 63.5077 16.1217ZM58.8607 15.9639C58.8607 13.2506 57.2535 11.2947 54.8992 11.2947C52.5449 11.2947 50.9079 13.2179 50.9079 15.9639C50.9079 18.7708 52.5449 20.6624 54.8992 20.6624C57.2535 20.6624 58.8607 18.7393 58.8607 15.9639Z" fill="#ebebeb"/>
<path d="M102.644 6.87916V8.29389H106.425V11.669H102.644V24.5052H98.0873V11.6734H95.9416V8.29843H98.0862V6.68981C98.0862 2.90443 100.766 0.885505 103.984 0.885505C105.462 0.861718 106.917 1.27681 108.184 2.08378L106.545 5.61999C105.966 5.16098 105.265 4.90731 104.542 4.89515C104.288 4.86909 104.033 4.90232 103.793 4.99243C103.553 5.08255 103.335 5.22739 103.154 5.41668C102.973 5.60596 102.833 5.83505 102.745 6.08778C102.657 6.34051 102.622 6.61066 102.644 6.87916Z" fill="#ebebeb"/>
<path d="M116.97 26.4046C115.839 29.4099 113.872 30.8528 111.103 30.8528C109.512 30.8935 107.962 30.3093 106.753 29.2126L108.689 25.7102C109.251 26.2815 109.996 26.6083 110.774 26.6255C111.231 26.6337 111.679 26.4927 112.058 26.2216C112.436 25.9505 112.726 25.5625 112.889 25.1105L113.336 24.1647L106.695 7.54646H111.43L115.63 19.2149L119.413 7.54646H124L116.97 26.4046Z" fill="#ebebeb"/>
<path d="M3.62943 1.10526C4.34726 1.10526 5.04898 1.3307 5.64583 1.75309C6.24269 2.17547 6.70788 2.77582 6.98259 3.47822C7.25729 4.18062 7.32916 4.95352 7.18912 5.69918C7.04908 6.44484 6.70341 7.12977 6.19582 7.66737C5.68824 8.20496 5.04154 8.57106 4.3375 8.71939C3.63346 8.86771 2.9037 8.79158 2.24051 8.50064C1.57732 8.2097 1.01048 7.717 0.611669 7.08486C0.212862 6.45272 0 5.70952 0 4.94925C0 3.92976 0.382385 2.95202 1.06304 2.23114C1.74369 1.51025 2.66685 1.10526 3.62943 1.10526Z" fill="#57CC99"/>
</svg>
